<svg width="70" height="60" fill="none" xmlns="http://www.w3.org/2000/svg"><path d="M69.734 34.92a1.368 1.368 0 0 0-.012-.126l-3.51-24.413a1.367 1.367 0 0 0-1.862-1.075l-16.147 6.492a1.367 1.367 0 1 0 1.02 2.537l14.53-5.842 3.238 22.528c.002.063.008.127.02.19a18.232 18.232 0 0 1-2.183 12.144 18.092 18.092 0 0 1-11.087 8.49 18.201 18.201 0 0 1-13.875-1.84c-.03-.018-.06-.032-.09-.047a24.77 24.77 0 0 0 2.558-2.234l16.007-4.29a1.367 1.367 0 1 0-.708-2.641l-12.316 3.3a24.763 24.763 0 0 0 3.135-6.609l10.989-2.944a1.367 1.367 0 1 0-.708-2.642l-8.085 2.167 3.04-5.267 6.425-1.721a1.367 1.367 0 1 0-.708-2.642l-3.783 1.014 2.91-5.04a1.367 1.367 0 1 0-2.369-1.366l-2.91 5.039-1.013-3.784a1.367 1.367 0 1 0-2.642.708l1.722 6.425-1.78 3.081a24.518 24.518 0 0 0-3.311-12.59 24.729 24.729 0 0 0-12.565-10.71l-.026-.012-6.187-2.51a1.367 1.367 0 1 0-1.029 2.533l6.13 2.488c.029.013.057.025.086.036A21.985 21.985 0 0 1 43.86 23.29c2.935 5.085 3.71 11.012 2.18 16.69a21.915 21.915 0 0 1-9.12 12.652l-2.295-3.975L39.6 30.092a1.367 1.367 0 1 0-2.641-.708l-4.267 15.924-5.062-8.767 3.451-12.88a1.367 1.367 0 0 0-2.641-.708L25.697 33.19l-3.99-6.911 2.078-7.757a1.367 1.367 0 1 0-2.641-.708l-1.37 5.116-3.781-6.548a1.367 1.367 0 1 0-2.368 1.367l3.78 6.548-5.115-1.37a1.367 1.367 0 1 0-.708 2.64l7.757 2.08 3.99 6.91-10.238-2.742a1.367 1.367 0 1 0-.708 2.641l12.88 3.451 5.062 8.768-15.924-4.267a1.367 1.367 0 1 0-.708 2.642l18.566 4.974L34.553 54c-10.332 5.15-23.048 1.441-28.88-8.66a21.976 21.976 0 0 1-2.63-14.637c.012-.068.018-.135.019-.203L6.966 3.328l9.058 3.677a1.367 1.367 0 1 0 1.028-2.534L6.376.136A1.368 1.368 0 0 0 4.508 1.21L.329 30.285c-.006.046-.01.093-.012.138a24.717 24.717 0 0 0 2.987 16.283c4.568 7.912 12.892 12.338 21.448 12.338 3.78 0 7.603-.867 11.17-2.674l1.68 2.91a1.367 1.367 0 1 0 2.368-1.367l-.623-1.08a20.903 20.903 0 0 0 15.099 1.654c5.42-1.444 9.949-4.912 12.75-9.765a20.974 20.974 0 0 0 2.538-13.802Z" fill="#222"/></svg>