<svg width="112" height="96" viewBox="0 0 112 96" fill="none" xmlns="http://www.w3.org/2000/svg">
<path fill-rule="evenodd" clip-rule="evenodd" d="M21.256 35.7995C18.3465 37.9809 15.4963 40.154 12.6994 42.4024C9.47116 44.9977 4.75023 44.4846 2.15495 41.2563C-0.440336 38.028 0.0728085 33.3071 3.30109 30.7118C7.59386 27.2608 12.0483 23.9458 16.3704 20.7293C17.4829 19.9014 18.5867 19.08 19.6766 18.2646C25.0741 14.2261 30.2296 10.2631 35.0175 6.00712C36.7712 4.44834 38.7764 2.93814 40.7351 1.68454L40.7435 1.67916C41.1444 1.42246 43.41 -0.0283954 46.5021 0.699737C50.4708 1.63429 51.7485 4.96192 52.0508 6.14118C52.3615 7.35371 52.2841 8.34234 52.2605 8.62824C52.2259 9.0475 52.1628 9.37833 52.1258 9.55578C52.0081 10.12 51.8409 10.5769 51.8094 10.6631C51.8079 10.6671 51.8068 10.6703 51.8059 10.6727C51.6986 10.9692 51.5744 11.2645 51.4937 11.4539C51.308 11.8893 51.0501 12.4647 50.7644 13.0915C50.1832 14.3666 49.3839 16.0809 48.5616 17.833C47.7111 19.645 46.8448 21.4792 46.1392 22.9732C45.4521 24.4281 44.9174 25.5603 44.698 26.0353C41.5929 32.758 37.4546 38.746 33.7504 44.1059C33.3215 44.7265 32.8984 45.3386 32.4835 45.9426C32.2324 46.3079 31.9837 46.671 31.7376 47.0321C33.6435 45.4601 35.5093 43.7077 37.4155 41.7582C42.8354 36.2151 49.3121 32.2773 55.0142 28.8973C59.9514 22.7894 65.8288 17.2417 72.4628 13.2443C73.2377 12.7774 74.0637 12.3296 74.9088 11.9771C75.618 11.6812 76.9789 11.1734 78.6423 11.163C80.5723 11.1509 83.9248 11.9279 85.7333 15.359C87.1028 17.9573 86.5798 20.3987 86.4022 21.1343C85.9664 22.9395 85.0074 24.4423 84.493 25.1961C84.2387 25.5689 83.9626 25.9439 83.6713 26.3115C84.0455 26.2214 84.5781 26.124 85.2029 26.1039C85.7264 26.0871 89.8109 25.9963 92.0108 29.9688C93.8641 33.3152 92.4426 36.3579 92.2799 36.7061C92.2758 36.7148 92.2726 36.7219 92.2701 36.7272C91.9103 37.5145 91.4943 38.0553 91.3559 38.2328C91.1647 38.478 90.9954 38.6639 90.896 38.7698C90.5741 39.113 90.2647 39.3766 90.1809 39.448L90.1732 39.4546C89.75 39.8157 89.0948 40.3157 88.5822 40.7042C88.0244 41.1271 87.4564 41.5526 86.9333 41.9444C86.8538 42.004 86.7753 42.0628 86.698 42.1207C85.4623 43.448 84.2573 45.2055 82.6531 47.5452C82.2573 48.1224 81.8372 48.735 81.3864 49.3854C79.3653 52.301 77.5341 55.4114 75.7657 58.6944C79.0176 56.6326 82.1392 54.6383 85.3032 52.418C87.1669 51.1101 89.2316 49.8771 91.0026 48.8195C91.3279 48.6252 91.6433 48.4368 91.9458 48.255C93.1922 47.1546 94.4772 46.0623 95.8065 44.9747C96.4587 44.4411 97.9703 43.4301 98.9177 42.8672C99.1764 42.7135 99.588 42.4753 100.038 42.2614C100.229 42.1706 100.695 41.9536 101.294 41.7762C101.576 41.6925 102.19 41.525 102.984 41.4725C103.541 41.4358 105.618 41.3327 107.712 42.7485C110.513 44.642 111.149 47.6129 111 49.5596C110.881 51.1055 110.311 52.2079 110.124 52.5583C109.684 53.3843 109.173 53.9641 109.027 54.1302L109.023 54.1355C108.615 54.5992 108.157 55.0266 107.814 55.3368C105.559 57.3805 103.101 59.0087 100.912 60.358C93.8157 66.7654 88.0582 73.5796 82.1033 81.9164C79.6957 85.287 75.0116 86.0677 71.641 83.6601C70.6393 82.9447 69.8664 82.0282 69.3379 81.0048C66.3651 83.2202 63.613 85.522 61.1293 88.0284C61.1174 88.0464 61.1046 88.0657 61.0912 88.0861C60.889 88.394 60.6494 88.7766 60.3749 89.2151L60.3336 89.2811C60.1154 89.6299 59.8008 90.1327 59.5507 90.4964C59.4777 90.6026 59.3483 90.788 59.1878 90.9937C59.1088 91.0951 58.9699 91.2689 58.7872 91.4699L58.7849 91.4723C58.6671 91.6019 58.2311 92.0814 57.5665 92.5551C57.2548 92.7773 56.4829 93.2994 55.3588 93.6366C54.2087 93.9815 51.7804 94.371 49.296 92.8574C46.8977 91.3963 46.1333 89.1761 45.8961 88.1733C45.6486 87.1272 45.6871 86.2747 45.7125 85.9117C45.7666 85.1397 45.9314 84.5485 45.9782 84.3811C46.0494 84.1258 46.1211 83.9187 46.1658 83.7945C47.1038 81.1889 48.5228 78.5543 49.7496 76.3918C49.6493 76.4692 49.5488 76.5465 49.4481 76.6236C47.1875 78.3541 44.3601 80.2225 41.7824 81.926C40.3864 82.8485 39.0636 83.7226 37.9438 84.5002C34.2796 87.0446 31.5056 89.3476 29.6983 91.7928C29.6933 91.7996 29.6864 91.809 29.6778 91.8208C29.5447 92.0033 28.9848 92.7712 28.2853 93.3992C28.2813 93.4028 28.2762 93.4074 28.27 93.4131C28.1126 93.5561 27.2477 94.342 25.9132 94.8521C25.2026 95.1237 23.3992 95.6941 21.1755 95.0629C18.5178 94.3085 16.9683 92.3599 16.2844 90.7038C15.7133 89.3207 15.7055 88.1249 15.7169 87.648C15.7307 87.0678 15.8092 86.6071 15.8598 86.3509C15.9612 85.8379 16.0953 85.4408 16.1542 85.2717C16.4305 84.4791 16.9609 83.4674 17.1722 83.0643C17.1908 83.0288 17.207 82.9981 17.2202 82.9726C17.3257 82.77 17.4285 82.5736 17.5287 82.3822C17.7614 81.9376 17.9799 81.5202 18.184 81.1161C18.3522 80.783 18.4379 80.5988 18.4708 80.5291C20.0383 75.6025 22.7917 71.9555 25.4578 69.0465C25.9607 68.4978 26.4748 67.9606 26.9853 67.4403C26.6928 67.5674 26.3977 67.6928 26.1002 67.8164C26.1004 67.8163 26.0602 67.8333 25.9273 67.8918C25.8928 67.907 25.8463 67.9275 25.7933 67.9509C25.6971 67.9933 25.5796 68.0451 25.4742 68.0914C25.1111 68.2507 24.6373 68.456 24.1041 68.6737C23.0936 69.0864 21.6405 69.6399 20.1431 70.0099C19.3958 70.1945 18.4266 70.3875 17.368 70.4411C16.4259 70.4888 14.6818 70.4722 12.8372 69.6287C10.588 68.6002 8.71385 66.5554 8.10572 63.761C7.60753 61.4717 8.14407 59.4908 8.55472 58.3501C11.4511 50.3047 15.9644 43.4964 20.1207 37.4477C20.5029 36.8916 20.8814 36.3425 21.256 35.7995ZM65.094 40.3613C64.5257 41.1179 63.9714 41.8862 63.432 42.664C64.5725 41.5306 65.7354 40.3962 66.9243 39.2697C66.3072 39.6407 65.6964 40.0042 65.094 40.3613ZM17.5136 83.0356C17.5148 83.0326 17.5411 82.9977 17.5888 82.9398C17.5362 83.0096 17.5124 83.0386 17.5136 83.0356ZM61.2867 87.7991C61.2865 87.7997 61.2792 87.8099 61.2654 87.8283C61.28 87.8077 61.2869 87.7985 61.2867 87.7991ZM72.2114 16.5668C72.2133 16.5664 72.199 16.594 72.1627 16.6508C72.1914 16.5956 72.2096 16.5672 72.2114 16.5668ZM22.6791 63.4001C22.6754 63.4103 22.6717 63.4206 22.668 63.4309L22.6695 63.4269C22.6714 63.4217 22.6747 63.4127 22.6791 63.4001Z" fill="#FCEDEA"/>
</svg>
