<svg width="50" height="34" viewBox="0 0 50 34" fill="none" xmlns="http://www.w3.org/2000/svg">
<path d="M11.1953 27.1011C10.2693 27.1011 9.51172 27.8587 9.51172 28.7847C9.51172 29.7106 10.2693 30.4682 11.1953 30.4682C12.1212 30.4682 12.8788 29.7106 12.8788 28.7847C12.8788 27.8587 12.1212 27.1011 11.1953 27.1011Z" fill="#222222"/>
<path d="M39.8989 27.1011C38.9729 27.1011 38.2153 27.8587 38.2153 28.7847C38.2153 29.7106 38.9729 30.4682 39.8989 30.4682C40.8248 30.4682 41.5824 29.7106 41.5824 28.7847C41.5824 27.8587 40.8248 27.1011 39.8989 27.1011Z" fill="#222222"/>
<path d="M37.3739 21.2089H35.6904C35.1853 21.2089 34.8486 21.5456 34.8486 22.0506C34.8486 22.5557 35.1853 22.8924 35.6904 22.8924H37.3739C37.8789 22.8924 38.2156 22.5557 38.2156 22.0506C38.2156 21.5456 37.8789 21.2089 37.3739 21.2089Z" fill="#222222"/>
<path d="M48.9058 19.4411L45.6229 18.0943L43.5185 9.67672C43.266 8.49823 42.2559 7.74066 41.0774 7.74066H36.6555C37.7602 4.34419 38.1813 1.39774 38.2155 1.09086C38.2155 0.838335 38.1313 0.669952 38.0471 0.417427C37.8787 0.249044 37.6262 0.164902 37.3736 0.164902H6.98657C6.56566 0.164902 6.22899 0.417427 6.22899 0.838335L5.74416 3.53197H2.69364C2.18859 3.53197 1.85192 3.86864 1.85192 4.37369C1.85192 4.87874 2.18859 5.21541 2.69364 5.21541H5.44113L5.1381 6.89894H2.10434C1.59929 6.89894 1.26263 7.23561 1.26263 7.74066C1.26263 8.24571 1.59929 8.58238 2.10434 8.58238H4.83497L4.53194 10.2659H1.51515C1.0101 10.2659 0.673434 10.6026 0.673434 11.1076C0.673434 11.6127 1.0101 11.9493 1.51515 11.9493H4.22891L3.92588 13.6329H0.841718C0.336667 13.6329 0 13.9696 0 14.4746C0 14.9797 0.336667 15.3163 0.841718 15.3163H3.62285L3.19859 17.6732C3.17994 17.7292 3.17077 17.7851 3.16771 17.8403L1.17848 28.6161C1.09434 28.8686 1.09434 29.037 1.26263 29.2895C1.43101 29.5421 1.68353 29.6262 1.93606 29.6262H6.21686C6.6208 32.0069 8.70433 33.835 11.1954 33.835C13.6864 33.835 15.7699 32.0069 16.1738 29.6262H34.9205C35.3244 32.0069 37.408 33.835 39.899 33.835C42.39 33.835 44.4735 32.0069 44.8775 29.6262H48.3165C49.2424 29.6262 50 28.8686 50 27.9427V21.0404C50 20.2828 49.5791 19.6936 48.9058 19.4411ZM14.6465 13.633H5.64907L5.94835 11.9494H15.3198C15.7407 11.9494 16.1615 11.6128 16.1615 11.1077C16.1615 10.6027 15.8249 10.266 15.3198 10.266H6.24763L6.54691 8.58247H15.9091C16.4141 8.58247 16.7508 8.24581 16.7508 7.74076C16.7508 7.23571 16.4141 6.89904 15.9091 6.89904H6.8462L7.14548 5.21551H16.4983C17.0033 5.21551 17.34 4.87884 17.34 4.37379C17.34 3.86874 17.0033 3.53207 16.4983 3.53207H7.44486L7.74414 1.84854H36.3636C36.1164 3.29661 35.5132 6.1968 34.3993 9.07579C33.0205 12.5936 30.7234 16.429 27.2282 16.9419C27.2055 16.9451 27.1826 16.9483 27.1597 16.9513C27.1111 16.9578 27.0624 16.9642 27.0134 16.9694C26.9363 16.9774 26.8585 16.9838 26.7802 16.9885C26.7541 16.9902 26.7277 16.9914 26.7014 16.9927C26.6118 16.9969 26.522 17 26.4309 17H5.05051L5.34979 15.3165H14.7306C15.1515 15.3165 15.4882 14.9798 15.4882 14.4748C15.4882 13.9697 15.1515 13.633 14.6465 13.633ZM11.1953 32.1515C9.34343 32.1515 7.82828 30.6363 7.82828 28.7845C7.82828 26.9327 9.34343 25.4175 11.1953 25.4175C13.0471 25.4175 14.5622 26.9327 14.5622 28.7845C14.5622 30.6363 13.0472 32.1515 11.1953 32.1515ZM39.899 32.1515C38.0472 32.1515 36.532 30.6363 36.532 28.7845C36.532 26.9327 38.0472 25.4175 39.899 25.4175C41.7508 25.4175 43.266 26.9327 43.266 28.7845C43.266 30.6363 41.7508 32.1515 39.899 32.1515ZM48.3165 27.9427H44.8775C44.4735 25.562 42.39 23.7339 39.899 23.7339C39.8857 23.7339 39.8726 23.7348 39.8592 23.7349C39.8443 23.7348 39.8297 23.7339 39.8148 23.7339C37.2896 23.7339 35.2694 25.5857 34.8485 27.9427H16.1737C15.8896 26.2676 14.7737 24.8672 13.2691 24.1837C13.2358 24.1685 13.2027 24.1528 13.169 24.1382C13.1478 24.1292 13.1263 24.1209 13.1049 24.1121C13.0504 24.0895 12.9957 24.0675 12.9402 24.0469C12.9251 24.0413 12.9099 24.0361 12.8947 24.0306C12.833 24.0083 12.771 23.9871 12.7082 23.9672C12.6946 23.9628 12.681 23.9588 12.6673 23.9547C12.6034 23.935 12.5389 23.9165 12.4738 23.8994C12.4594 23.8957 12.445 23.8919 12.4305 23.8883C12.3665 23.8721 12.3021 23.8571 12.2372 23.8434C12.2208 23.8399 12.2045 23.8364 12.1881 23.8331C12.1255 23.8205 12.0622 23.8093 11.9986 23.7991C11.9798 23.796 11.9609 23.7928 11.942 23.7899C11.8807 23.7807 11.8189 23.7732 11.7568 23.7662C11.7358 23.7639 11.7149 23.7611 11.6938 23.7589C11.6317 23.7528 11.5692 23.7484 11.5065 23.7445C11.4858 23.7433 11.4653 23.7413 11.4445 23.7403C11.362 23.7363 11.2788 23.7339 11.1951 23.7339C11.1113 23.7339 11.0282 23.7363 10.9456 23.7403C10.9249 23.7413 10.9044 23.7433 10.8836 23.7445C10.8209 23.7484 10.7584 23.7528 10.6963 23.7589C10.6752 23.761 10.6543 23.7639 10.6333 23.7662C10.5712 23.7732 10.5094 23.7808 10.4481 23.7899C10.4292 23.7928 10.4105 23.796 10.3915 23.7991C10.3279 23.8094 10.2648 23.8206 10.202 23.8331C10.1855 23.8365 10.1693 23.8399 10.1529 23.8434C10.088 23.8571 10.0236 23.8721 9.95966 23.8883C9.94525 23.8919 9.93075 23.8956 9.91635 23.8994C9.85125 23.9166 9.78673 23.935 9.72281 23.9548C9.7092 23.9589 9.69559 23.9629 9.68198 23.9673C9.61914 23.9872 9.557 24.0085 9.49534 24.0308C9.48025 24.0362 9.46496 24.0414 9.44997 24.047C9.39443 24.0677 9.33959 24.0897 9.28504 24.1123C9.26383 24.1211 9.24233 24.1293 9.22122 24.1383C9.18738 24.1529 9.15414 24.1686 9.1207 24.184C7.6164 24.8676 6.50065 26.2679 6.21656 27.9428H2.94616L4.71384 18.6835H26.431C26.5501 18.6835 26.6677 18.68 26.7844 18.6745C26.7924 18.6741 26.8003 18.6739 26.8083 18.6735C31.4826 18.4386 34.3636 13.8556 36.061 9.42429H41.0775C41.4984 9.42429 41.835 9.76096 41.9192 10.0977L43.8368 17.8419H40.1515C39.5623 17.8419 39.0573 17.3368 39.0573 16.7476V12.7914C39.0573 12.2863 38.7206 11.9496 38.2156 11.9496C37.7105 11.9496 37.3738 12.2863 37.3738 12.7914V16.7476C37.3738 18.2628 38.6365 19.5254 40.1516 19.5254H44.6129L48.3167 20.9564V27.9427H48.3165Z" fill="#222222"/>
</svg>
