<svg width="50" height="50" viewBox="0 0 50 50" fill="none" xmlns="http://www.w3.org/2000/svg">
<g id="icon" clip-path="url(#clip0_1149_1477)">
<g id="Group">
<g id="Group_2">
<path id="Vector" d="M47.707 17.7537H42.7884L40.3019 8.00294C39.9895 6.77775 38.7385 6.03546 37.5136 6.34767L31.8447 7.79317C31.4624 7.89064 31.2315 8.2797 31.3289 8.66202C31.4265 9.04434 31.8154 9.27511 32.1978 9.17784L37.8666 7.73234C38.3286 7.61486 38.7996 7.89444 38.9174 8.35606L39.1928 9.43624L1.73142 18.9886L1.45603 17.9085C1.399 17.6849 1.43249 17.4523 1.55026 17.2539C1.66814 17.0555 1.85622 16.9147 2.07985 16.8577L27.8473 10.2871C28.2296 10.1897 28.4606 9.80059 28.3631 9.41827C28.2655 9.03595 27.8768 8.80518 27.4943 8.90245L1.72673 15.473C0.501536 15.7854 -0.24104 17.0363 0.0713613 18.2614L5.35534 38.9832C5.6195 40.0191 6.55436 40.71 7.5775 40.7099C7.76441 40.7099 7.95445 40.6868 8.14371 40.6385L8.48199 40.5523V41.4315C8.48199 42.6958 9.5106 43.7245 10.775 43.7245H47.707C48.9714 43.7245 50 42.6958 50 41.4315V20.0467C50 18.7823 48.9714 17.7537 47.707 17.7537ZM8.48209 39.0777L7.79078 39.254C7.32916 39.3717 6.85777 39.0918 6.74 38.6302L3.50563 25.9463L8.48209 24.6773V39.0777ZM8.48209 20.0466V23.2027L3.15261 24.5617L2.08454 20.373L8.98755 18.6128C8.67173 19.0058 8.48209 19.5044 8.48209 20.0466ZM41.3138 17.7536H35.6344L40.967 16.3938L41.3138 17.7536ZM39.5459 10.8206L40.614 15.0093L29.8516 17.7537H12.357L39.5459 10.8206ZM47.707 42.2955H10.7751C10.2986 42.2955 9.91089 41.908 9.91089 41.4315V39.6329V20.0467C9.91089 19.5702 10.2985 19.1826 10.7751 19.1826H47.707C48.1835 19.1826 48.5711 19.5702 48.5711 20.0467V41.4315C48.5711 41.908 48.1835 42.2955 47.707 42.2955Z" fill="#222222"/>
</g>
</g>
<g id="Group_3">
<g id="Group_4">
<path id="Vector_2" d="M28.4515 35.3408H12.8844C12.4898 35.3408 12.1699 35.6606 12.1699 36.0553C12.1699 36.4499 12.4898 36.7697 12.8844 36.7697H28.4515C28.846 36.7697 29.166 36.4499 29.166 36.0553C29.166 35.6607 28.8461 35.3408 28.4515 35.3408Z" fill="#222222"/>
</g>
</g>
<g id="Group_5">
<g id="Group_6">
<path id="Vector_3" d="M40.3564 22.7783C39.3303 22.7783 38.3806 23.1096 37.6066 23.6694C36.8091 23.0916 35.8523 22.7783 34.8539 22.7783C32.2603 22.7783 30.1504 24.8883 30.1504 27.4818C30.1506 30.0753 32.2605 32.1852 34.854 32.1852C35.8524 32.1852 36.8091 31.872 37.6066 31.2941C38.3806 31.854 39.3303 32.1852 40.3564 32.1852C42.9499 32.1852 45.0598 30.0753 45.0598 27.4818C45.0598 24.8883 42.9499 22.7783 40.3564 22.7783ZM35.6587 27.7048C35.6596 27.7231 35.6608 27.7414 35.6619 27.7598C35.6653 27.8196 35.6699 27.8793 35.6756 27.9388C35.6769 27.9526 35.6782 27.9665 35.6797 27.9804C35.7668 28.8159 36.0716 29.6008 36.5687 30.2712C36.057 30.587 35.4667 30.7562 34.854 30.7562C33.0483 30.7562 31.5794 29.2873 31.5794 27.4817C31.5795 25.6763 33.0484 24.2072 34.854 24.2072C35.4667 24.2072 36.057 24.3765 36.5687 24.6923C36.0717 25.3627 35.7668 26.1476 35.6797 26.9831C35.6782 26.997 35.6769 27.0107 35.6756 27.0246C35.6699 27.0841 35.6654 27.1437 35.6619 27.2036C35.6608 27.222 35.6596 27.2401 35.6587 27.2585C35.6553 27.3326 35.653 27.4069 35.653 27.4816C35.653 27.5563 35.6553 27.6307 35.6587 27.7048ZM40.3566 30.7563C39.4626 30.7563 38.6514 30.3959 38.0599 29.8131C38.0477 29.8011 38.0357 29.789 38.0237 29.7767C37.9965 29.749 37.9694 29.721 37.9431 29.6923C37.9359 29.6844 37.9288 29.6764 37.9216 29.6683C37.8907 29.634 37.8602 29.5992 37.8308 29.5636C37.8306 29.5634 37.8306 29.5632 37.8304 29.563C37.3631 28.9968 37.082 28.2714 37.082 27.4816C37.0819 26.692 37.3631 25.9666 37.8305 25.4003C37.8305 25.4002 37.8306 25.4001 37.8307 25.3999C37.8602 25.3642 37.8908 25.3294 37.9218 25.2949C37.9289 25.287 37.9359 25.2791 37.9431 25.2713C37.9695 25.2425 37.9966 25.2144 38.0239 25.1866C38.0358 25.1745 38.0477 25.1625 38.0598 25.1506C38.6513 24.5678 39.4626 24.2072 40.3566 24.2072C42.1622 24.2072 43.6311 25.6762 43.6311 27.4818C43.6311 29.2874 42.1622 30.7563 40.3566 30.7563Z" fill="#222222"/>
</g>
</g>
<g id="Group_7">
<g id="Group_8">
<path id="Vector_4" d="M17.9756 23.2427H14.8422C13.3687 23.2427 12.1699 24.4414 12.1699 25.9149V29.0483C12.1698 30.5219 13.3687 31.7206 14.8422 31.7206H17.9756C19.449 31.7206 20.6478 30.5219 20.6478 29.0483V25.9149C20.6478 24.4415 19.4491 23.2427 17.9756 23.2427ZM19.2188 27.8654H17.6947C17.3002 27.8654 16.9803 28.1853 16.9803 28.5799C16.9803 28.9745 17.3001 29.2943 17.6947 29.2943H19.1942C19.0797 29.8625 18.5768 30.2918 17.9755 30.2918H14.8421C14.2406 30.2918 13.7378 29.8626 13.6233 29.2943H15.1228C15.5174 29.2943 15.8373 28.9745 15.8373 28.5799C15.8373 28.1853 15.5175 27.8654 15.1228 27.8654H13.5987V27.2463H15.1228C15.5174 27.2463 15.8373 26.9265 15.8373 26.5318C15.8373 26.1373 15.5175 25.8174 15.1228 25.8174H13.6036C13.6536 25.1773 14.1894 24.6715 14.8421 24.6715H17.9755C18.6282 24.6715 19.1639 25.1773 19.214 25.8174H17.6947C17.3002 25.8174 16.9803 26.1372 16.9803 26.5318C16.9803 26.9264 17.3001 27.2463 17.6947 27.2463H19.2188V27.8654Z" fill="#222222"/>
</g>
</g>
<g id="Group_9">
<g id="Group_10">
<path id="Vector_5" d="M45.2254 38.4844H20.3492C19.9547 38.4844 19.6348 38.8042 19.6348 39.1988C19.6348 39.5935 19.9546 39.9133 20.3492 39.9133H45.2254C45.62 39.9133 45.9399 39.5935 45.9399 39.1988C45.9399 38.8042 45.6201 38.4844 45.2254 38.4844Z" fill="#222222"/>
</g>
</g>
<g id="Group_11">
<g id="Group_12">
<path id="Vector_6" d="M15.7958 38.4844H12.8844C12.4898 38.4844 12.1699 38.8042 12.1699 39.1988C12.1699 39.5935 12.4897 39.9133 12.8844 39.9133H15.7958C16.1903 39.9133 16.5103 39.5935 16.5103 39.1988C16.5103 38.8042 16.1903 38.4844 15.7958 38.4844Z" fill="#222222"/>
</g>
</g>
</g>
<defs>
<clipPath id="clip0_1149_1477">
<rect width="50" height="50" fill="white"/>
</clipPath>
</defs>
</svg>
