<svg width="16" height="16" viewBox="0 0 16 16" fill="none" xmlns="http://www.w3.org/2000/svg">
<g id="icon" clip-path="url(#clip0_713_5704)">
<path id="Vector" d="M2.31124 0.812469C1.21133 0.812469 0.492188 1.53473 0.492188 2.48404C0.492188 3.41238 1.18991 4.15524 2.26904 4.15524H2.28991C3.41134 4.15524 4.10925 3.41238 4.10925 2.48404C4.08828 1.53473 3.41134 0.812469 2.31124 0.812469V0.812469Z" fill="#222222"/>
<path id="Vector_2" d="M0.682617 5.47607H3.89814V15.1501H0.682617V5.47607Z" fill="#222222"/>
<path id="Vector_3" d="M11.7902 5.24902C10.0556 5.24902 8.89237 6.87903 8.89237 6.87903V5.47607H5.67676V15.1501H8.89219V9.74776C8.89219 9.45854 8.91316 9.16978 8.99812 8.96296C9.23057 8.38545 9.75956 7.78715 10.6479 7.78715C11.8115 7.78715 12.2768 8.6743 12.2768 9.97481V15.1501H15.4921V9.60319C15.4921 6.63175 13.9056 5.24902 11.7902 5.24902V5.24902Z" fill="#222222"/>
</g>
<defs>
<clipPath id="clip0_713_5704">
<rect width="16" height="16" fill="white"/>
</clipPath>
</defs>
</svg>
