<svg width="112" height="96" viewBox="0 0 112 96" fill="none" xmlns="http://www.w3.org/2000/svg">
<path opacity="0.2" fill-rule="evenodd" clip-rule="evenodd" d="M21.2557 35.7995C18.3462 37.9809 15.496 40.154 12.6992 42.4024C9.47092 44.9977 4.74999 44.4846 2.1547 41.2563C-0.440581 38.028 0.0725644 33.3071 3.30084 30.7118C7.59362 27.2608 12.0481 23.9458 16.3702 20.7293C17.4827 19.9014 18.5864 19.08 19.6764 18.2646C25.0739 14.2261 30.2294 10.2631 35.0173 6.00712C36.7709 4.44834 38.7761 2.93814 40.7349 1.68454L40.7433 1.67916C41.1442 1.42246 43.4098 -0.0283954 46.5019 0.699737C50.4705 1.63429 51.7483 4.96192 52.0505 6.14118C52.3613 7.35371 52.2838 8.34234 52.2602 8.62824C52.2256 9.0475 52.1626 9.37833 52.1256 9.55578C52.0078 10.12 51.8407 10.5769 51.8092 10.6631C51.8077 10.6671 51.8065 10.6703 51.8057 10.6727C51.6983 10.9692 51.5742 11.2645 51.4934 11.4539C51.3078 11.8893 51.0498 12.4647 50.7641 13.0915C50.183 14.3666 49.3836 16.0809 48.5613 17.833C47.7108 19.645 46.8446 21.4792 46.139 22.9732C45.4519 24.4281 44.9171 25.5603 44.6977 26.0353C41.5926 32.758 37.4543 38.746 33.7502 44.1059C33.3213 44.7265 32.8982 45.3386 32.4832 45.9426C32.2321 46.3079 31.9835 46.671 31.7374 47.0321C33.6433 45.4601 35.5091 43.7077 37.4152 41.7582C42.8352 36.2151 49.3119 32.2773 55.014 28.8973C59.9512 22.7894 65.8285 17.2417 72.4625 13.2443C73.2374 12.7774 74.0635 12.3296 74.9086 11.9771C75.6177 11.6812 76.9787 11.1734 78.6421 11.163C80.5721 11.1509 83.9246 11.9279 85.7331 15.359C87.1026 17.9573 86.5795 20.3987 86.402 21.1343C85.9662 22.9395 85.0071 24.4423 84.4928 25.1961C84.2384 25.5689 83.9623 25.9439 83.6711 26.3115C84.0453 26.2214 84.5779 26.124 85.2027 26.1039C85.7262 26.0871 89.8107 25.9963 92.0106 29.9688C93.8638 33.3152 92.4423 36.3579 92.2797 36.7061C92.2756 36.7148 92.2723 36.7219 92.2699 36.7272C91.91 37.5145 91.494 38.0553 91.3556 38.2328C91.1645 38.478 90.9952 38.6639 90.8958 38.7698C90.5739 39.113 90.2644 39.3766 90.1807 39.448L90.1729 39.4546C89.7497 39.8156 89.0945 40.3157 88.582 40.7042C88.0242 41.1271 87.4561 41.5526 86.9331 41.9444C86.8535 42.004 86.775 42.0628 86.6978 42.1207C85.4621 43.448 84.257 45.2055 82.6528 47.5452C82.2571 48.1224 81.837 48.735 81.3862 49.3854C79.3651 52.301 77.5339 55.4114 75.7654 58.6944C79.0173 56.6326 82.1389 54.6383 85.3029 52.418C87.1666 51.1101 89.2314 49.8771 91.0024 48.8195C91.3277 48.6252 91.6431 48.4368 91.9455 48.255C93.1919 47.1546 94.477 46.0623 95.8063 44.9747C96.4585 44.4411 97.9701 43.4301 98.9175 42.8672C99.1762 42.7135 99.5878 42.4753 100.038 42.2614C100.229 42.1706 100.695 41.9536 101.294 41.7762C101.576 41.6925 102.19 41.525 102.984 41.4725C103.541 41.4358 105.618 41.3327 107.712 42.7485C110.513 44.642 111.149 47.6129 110.999 49.5596C110.881 51.1055 110.311 52.2079 110.124 52.5583C109.683 53.3843 109.173 53.9641 109.027 54.1302L109.022 54.1355C108.614 54.5992 108.156 55.0266 107.814 55.3368C105.559 57.3805 103.101 59.0087 100.912 60.358C93.8155 66.7654 88.0579 73.5796 82.103 81.9164C79.6955 85.287 75.0113 86.0677 71.6407 83.6601C70.6391 82.9447 69.8661 82.0282 69.3376 81.0048C66.3648 83.2202 63.6127 85.522 61.1291 88.0284C61.1171 88.0464 61.1044 88.0657 61.091 88.0861C60.8887 88.394 60.6491 88.7766 60.3747 89.2151L60.3334 89.2811C60.1151 89.6299 59.8006 90.1327 59.5505 90.4964C59.4774 90.6026 59.348 90.788 59.1876 90.9937C59.1085 91.0951 58.9697 91.2689 58.7869 91.4699L58.7847 91.4723C58.6668 91.6019 58.2308 92.0814 57.5663 92.5551C57.2545 92.7773 56.4826 93.2994 55.3586 93.6366C54.2084 93.9815 51.7801 94.371 49.2957 92.8574C46.8975 91.3963 46.1331 89.1761 45.8959 88.1733C45.6484 87.1272 45.6869 86.2747 45.7123 85.9117C45.7664 85.1397 45.9312 84.5485 45.9779 84.3811C46.0492 84.1258 46.1209 83.9187 46.1656 83.7945C47.1036 81.1889 48.5226 78.5543 49.7493 76.3918C49.649 76.4692 49.5485 76.5465 49.4478 76.6236C47.1873 78.3541 44.3598 80.2225 41.7822 81.926C40.3861 82.8485 39.0634 83.7226 37.9436 84.5002C34.2794 87.0446 31.5054 89.3476 29.698 91.7928C29.693 91.7996 29.6862 91.809 29.6775 91.8208C29.5445 92.0033 28.9845 92.7712 28.2851 93.3992C28.2811 93.4028 28.276 93.4074 28.2698 93.4131C28.1123 93.5561 27.2475 94.342 25.913 94.8521C25.2024 95.1237 23.3989 95.6941 21.1752 95.0629C18.5175 94.3085 16.968 92.3599 16.2842 90.7038C15.713 89.3207 15.7052 88.1249 15.7166 87.648C15.7305 87.0678 15.8089 86.6071 15.8596 86.3509C15.961 85.8379 16.095 85.4408 16.154 85.2717C16.4303 84.4791 16.9607 83.4674 17.172 83.0643C17.1906 83.0288 17.2067 82.9981 17.22 82.9726C17.3254 82.77 17.4282 82.5736 17.5284 82.3822C17.7612 81.9376 17.9797 81.5202 18.1838 81.1161C18.352 80.783 18.4376 80.5988 18.4706 80.5291C20.0381 75.6025 22.7914 71.9555 25.4576 69.0465C25.9605 68.4978 26.4746 67.9606 26.9851 67.4403C26.6925 67.5674 26.3975 67.6928 26.0999 67.8164C26.1002 67.8163 26.06 67.8333 25.927 67.8918C25.8926 67.907 25.846 67.9275 25.793 67.9509C25.6969 67.9933 25.5794 68.0451 25.474 68.0914C25.1109 68.2507 24.6371 68.456 24.1038 68.6737C23.0933 69.0864 21.6403 69.6399 20.1428 70.0099C19.3956 70.1945 18.4263 70.3875 17.3678 70.4411C16.4257 70.4888 14.6816 70.4722 12.8369 69.6287C10.5877 68.6002 8.71361 66.5554 8.10548 63.761C7.60729 61.4717 8.14383 59.4908 8.55448 58.3501C11.4508 50.3047 15.9642 43.4964 20.1205 37.4477C20.5026 36.8916 20.8812 36.3425 21.2557 35.7995ZM65.0937 40.3613C64.5255 41.1179 63.9712 41.8862 63.4318 42.664C64.5723 41.5306 65.7352 40.3962 66.9241 39.2697C66.307 39.6407 65.6961 40.0042 65.0937 40.3613ZM17.5133 83.0356C17.5146 83.0326 17.5408 82.9977 17.5885 82.9398C17.536 83.0096 17.5121 83.0386 17.5133 83.0356ZM61.2865 87.7991C61.2862 87.7997 61.279 87.8099 61.2652 87.8283C61.2798 87.8077 61.2867 87.7985 61.2865 87.7991ZM72.2112 16.5668C72.2131 16.5664 72.1987 16.594 72.1625 16.6508C72.1912 16.5956 72.2093 16.5672 72.2112 16.5668ZM22.6789 63.4001C22.6752 63.4103 22.6715 63.4206 22.6678 63.4309L22.6692 63.4269C22.6712 63.4217 22.6745 63.4127 22.6789 63.4001Z" fill="#D05278"/>
</svg>
