<svg width="20" height="18" viewBox="0 0 20 18" fill="none" xmlns="http://www.w3.org/2000/svg">
<path fill-rule="evenodd" clip-rule="evenodd" d="M12.0834 1.15469C12.7306 0.886508 13.4243 0.748474 14.1249 0.748474C14.8255 0.748474 15.5193 0.886508 16.1665 1.15469C16.8137 1.42287 17.4018 1.81595 17.8971 2.31146C18.3925 2.80668 18.7854 3.39465 19.0536 4.04177C19.3218 4.689 19.4598 5.38273 19.4598 6.08333C19.4598 6.78392 19.3218 7.47765 19.0536 8.12489C18.7854 8.77206 18.3924 9.36007 17.8969 9.85533C17.8969 9.85537 17.8969 9.85541 17.8968 9.85545L10.5303 17.222C10.3896 17.3626 10.1988 17.4417 9.99994 17.4417C9.80102 17.4417 9.61026 17.3626 9.46961 17.222L2.10294 9.85533C1.10254 8.85493 0.540527 7.4981 0.540527 6.08333C0.540527 4.66856 1.10254 3.31173 2.10294 2.31133C3.10334 1.31094 4.46016 0.74892 5.87494 0.74892C7.28971 0.74892 8.64654 1.31094 9.64693 2.31133L9.99994 2.66434L10.3528 2.31146C10.8481 1.81595 11.4361 1.42287 12.0834 1.15469ZM14.1249 2.24847C13.6214 2.24847 13.1228 2.34769 12.6576 2.54044C12.1924 2.7332 11.7697 3.01572 11.4137 3.37187L11.4136 3.37199L10.5303 4.25533C10.3896 4.39598 10.1988 4.475 9.99994 4.475C9.80102 4.475 9.61026 4.39598 9.46961 4.25533L8.58627 3.37199C7.86718 2.6529 6.89188 2.24892 5.87494 2.24892C4.85799 2.24892 3.88269 2.6529 3.1636 3.37199C2.44451 4.09108 2.04053 5.06638 2.04053 6.08333C2.04053 7.10028 2.44451 8.07558 3.1636 8.79467L9.99994 15.631L16.8363 8.79467L16.8364 8.79454C17.1925 8.43856 17.4751 8.0159 17.6678 7.5507C17.8606 7.0855 17.9598 6.58688 17.9598 6.08333C17.9598 5.57978 17.8606 5.08116 17.6678 4.61596C17.4751 4.15076 17.1925 3.7281 16.8364 3.37212L16.8361 3.37187C16.4802 3.01572 16.0575 2.7332 15.5923 2.54044C15.1271 2.34769 14.6285 2.24847 14.1249 2.24847Z" fill="#222222"/>
</svg>
