<svg width="205" height="158" viewBox="0 0 205 158" fill="none" xmlns="http://www.w3.org/2000/svg">
<path opacity="0.2" fill-rule="evenodd" clip-rule="evenodd" d="M46.763 79.647C40.208 84.5687 33.7865 89.4715 27.4852 94.5443C20.2119 100.4 9.57573 99.2419 3.72858 91.9584C-2.11857 84.675 -0.962458 74.0238 6.31082 68.1685C15.9824 60.3824 26.0183 52.9033 35.756 45.6465C38.2624 43.7786 40.7491 41.9254 43.2047 40.0856C55.3652 30.9743 66.9805 22.033 77.7677 12.4309C81.7186 8.9141 86.2363 5.50687 90.6494 2.67856L90.6683 2.66642C91.5714 2.08726 96.6758 -1.18608 103.642 0.456697C112.584 2.56519 115.462 10.0728 116.143 12.7334C116.844 15.4691 116.669 17.6996 116.616 18.3446C116.538 19.2905 116.396 20.0369 116.312 20.4373C116.047 21.7103 115.671 22.7411 115.6 22.9354C115.596 22.9445 115.594 22.9518 115.592 22.9572C115.35 23.6261 115.07 24.2924 114.888 24.7197C114.47 25.7021 113.889 27.0002 113.245 28.4143C111.936 31.2912 110.135 35.1589 108.282 39.1118C106.366 43.2001 104.414 47.3383 102.825 50.7089C101.277 53.9914 100.072 56.5459 99.5776 57.6176C92.5818 72.785 83.2583 86.2949 74.9128 98.3875C73.9465 99.7876 72.9934 101.169 72.0584 102.531C71.4928 103.356 70.9325 104.175 70.378 104.989C74.672 101.443 78.8756 97.4892 83.1702 93.0908C95.3812 80.5847 109.973 71.7005 122.82 64.0746C133.943 50.2944 147.185 37.7779 162.131 28.7592C163.877 27.7057 165.738 26.6955 167.642 25.9C169.24 25.2325 172.306 24.0868 176.054 24.0633C180.402 24.0361 187.955 25.789 192.03 33.5303C195.115 39.3924 193.937 44.9006 193.537 46.5601C192.555 50.633 190.394 54.0234 189.235 55.7242C188.662 56.5652 188.04 57.4113 187.384 58.2407C188.227 58.0375 189.427 57.8176 190.835 57.7723C192.014 57.7344 201.217 57.5297 206.173 66.4921C210.348 74.0422 207.146 80.9069 206.779 81.6924C206.77 81.7121 206.763 81.728 206.757 81.74C205.946 83.5163 205.009 84.7365 204.697 85.137C204.267 85.6901 203.885 86.1096 203.661 86.3486C202.936 87.1228 202.239 87.7176 202.05 87.8786L202.033 87.8935C201.079 88.7081 199.603 89.8364 198.448 90.7129C197.192 91.6669 195.912 92.627 194.733 93.511C194.554 93.6454 194.377 93.778 194.203 93.9086C191.419 96.9033 188.704 100.868 185.09 106.147C184.198 107.449 183.252 108.832 182.236 110.299C177.683 116.877 173.557 123.894 169.573 131.301C176.899 126.65 183.932 122.15 191.061 117.141C195.26 114.19 199.911 111.408 203.902 109.022C204.634 108.584 205.345 108.159 206.026 107.749C208.835 105.266 211.73 102.801 214.725 100.348C216.194 99.1438 219.6 96.8629 221.734 95.5928C222.317 95.246 223.244 94.7086 224.258 94.226C224.688 94.0213 225.739 93.5315 227.088 93.1315C227.724 92.9427 229.107 92.5646 230.896 92.4462C232.15 92.3633 236.829 92.1309 241.548 95.3251C247.858 99.597 249.291 106.3 248.954 110.692C248.687 114.18 247.403 116.667 246.982 117.458C245.99 119.321 244.84 120.629 244.511 121.004L244.5 121.016C243.581 122.062 242.549 123.026 241.778 123.726C236.698 128.337 231.159 132.011 226.227 135.055C210.239 149.511 197.268 164.885 183.851 183.694C178.427 191.298 167.874 193.06 160.28 187.628C158.023 186.014 156.282 183.946 155.091 181.637C148.393 186.635 142.193 191.829 136.597 197.483C136.57 197.524 136.542 197.567 136.511 197.614C136.056 198.308 135.516 199.172 134.898 200.161L134.805 200.31C134.313 201.097 133.604 202.231 133.041 203.052C132.876 203.291 132.585 203.709 132.223 204.173C132.045 204.402 131.732 204.794 131.32 205.248L131.315 205.253C131.05 205.546 130.068 206.627 128.57 207.696C127.868 208.198 126.129 209.376 123.596 210.136C121.005 210.915 115.534 211.793 109.937 208.378C104.534 205.082 102.811 200.073 102.277 197.81C101.719 195.45 101.806 193.527 101.863 192.708C101.985 190.966 102.357 189.632 102.462 189.255C102.622 188.678 102.784 188.211 102.885 187.931C104.998 182.052 108.195 176.108 110.959 171.229C110.733 171.404 110.506 171.578 110.28 171.752C105.186 175.657 98.8164 179.872 93.0088 183.715C89.8636 185.797 86.8835 187.769 84.3605 189.523C76.1052 195.264 69.8554 200.46 65.7834 205.976C65.7722 205.992 65.7568 206.013 65.7373 206.04C65.4374 206.451 64.1759 208.184 62.6001 209.601C62.5911 209.609 62.5796 209.619 62.5656 209.632C62.2109 209.955 60.2624 211.728 57.2557 212.879C55.6548 213.491 51.5916 214.778 46.5817 213.354C40.5939 211.652 37.1029 207.256 35.5621 203.519C34.2754 200.399 34.2578 197.701 34.2835 196.625C34.3147 195.316 34.4914 194.277 34.6055 193.699C34.834 192.541 35.136 191.645 35.2688 191.264C35.8913 189.476 37.0863 187.193 37.5624 186.283C37.6043 186.204 37.6406 186.134 37.6705 186.077C37.908 185.62 38.1397 185.176 38.3655 184.745C38.8898 183.742 39.3821 182.8 39.8419 181.888C40.2209 181.137 40.4138 180.721 40.4881 180.564C44.0197 169.449 50.2229 161.22 56.2297 154.657C57.3628 153.419 58.521 152.207 59.6712 151.033C59.0121 151.32 58.3474 151.603 57.6769 151.882C57.6775 151.882 57.587 151.92 57.2874 152.052C57.2098 152.086 57.1049 152.133 56.9855 152.185C56.7688 152.281 56.5041 152.398 56.2667 152.502C55.4486 152.862 54.3811 153.325 53.1797 153.816C50.9031 154.747 47.6293 155.996 44.2556 156.831C42.5721 157.247 40.3884 157.683 38.0035 157.804C35.8809 157.911 31.9515 157.874 27.7955 155.971C22.7281 153.65 18.5057 149.037 17.1356 142.732C16.0132 137.568 17.222 133.098 18.1472 130.525C24.6726 112.373 34.8412 97.0125 44.2053 83.3656C45.0662 82.1109 45.9191 80.8722 46.763 79.647ZM145.53 89.9392C144.249 91.6461 143 93.3797 141.785 95.1345C144.355 92.5773 146.975 90.0179 149.653 87.4763C148.263 88.3133 146.887 89.1334 145.53 89.9392ZM38.3314 186.219C38.3342 186.212 38.3933 186.133 38.5008 186.003C38.3824 186.16 38.3287 186.225 38.3314 186.219ZM136.952 196.966C136.951 196.967 136.935 196.99 136.904 197.032C136.937 196.985 136.952 196.965 136.952 196.966ZM161.565 36.2551C161.569 36.2542 161.537 36.3165 161.455 36.4447C161.52 36.3202 161.561 36.256 161.565 36.2551ZM49.9694 141.918C49.961 141.941 49.9527 141.964 49.9444 141.988L49.9476 141.979C49.9519 141.967 49.9594 141.947 49.9694 141.918Z" fill="#D05278"/>
</svg>
