<svg width="53" height="70" viewBox="0 0 53 70" fill="none" xmlns="http://www.w3.org/2000/svg">
<path d="M5.62891 25.9766C5.62891 37.2847 14.8286 46.4844 26.1367 46.4844C37.4449 46.4844 46.6446 37.2847 46.6446 25.9766C46.6446 14.6684 37.4449 5.46875 26.1367 5.46875C14.8286 5.46875 5.62891 14.6684 5.62891 25.9766ZM26.1367 8.20313C35.9373 8.20313 43.9102 16.1761 43.9102 25.9766C43.9102 35.7771 35.9373 43.7501 26.1367 43.7501C16.3362 43.7501 8.36329 35.7771 8.36329 25.9766C8.36329 16.1761 16.3362 8.20313 26.1367 8.20313Z" fill="#222222"/>
<path d="M13.4753 23.5391L18.7748 28.7606L17.5556 36.0991C17.4706 36.6102 17.6816 37.125 18.1008 37.4294C18.5195 37.7338 19.0744 37.775 19.5342 37.5368L26.1368 34.1081L32.7388 37.5368C33.1949 37.7734 33.7498 37.7365 34.1723 37.4294C34.5915 37.125 34.8025 36.6102 34.7175 36.0991L33.4983 28.7606L38.7977 23.5391C39.1668 23.1759 39.2987 22.6355 39.1385 22.1425C38.9783 21.6501 38.5537 21.2907 38.0415 21.2133L30.687 20.1062L27.3593 13.4512C27.128 12.9882 26.6543 12.6956 26.1368 12.6956C25.6188 12.6956 25.1456 12.9882 24.9138 13.4512L21.5861 20.1062L14.2316 21.2133C13.7194 21.2902 13.2948 21.6501 13.1346 22.1425C12.9744 22.6355 13.1068 23.1759 13.4753 23.5391ZM22.6953 22.7044C23.1354 22.6381 23.5157 22.362 23.7149 21.9641L26.1368 17.1197L28.5588 21.9641C28.758 22.362 29.1382 22.6381 29.5783 22.7044L34.9312 23.5102L31.0737 27.3101C30.757 27.6225 30.6117 28.0695 30.6843 28.5085L31.5719 33.8496L26.7665 31.3545C26.5694 31.252 26.3531 31.2007 26.1368 31.2007C25.9205 31.2007 25.7042 31.252 25.5066 31.3545L20.7012 33.8496L21.5888 28.5085C21.6619 28.0695 21.5167 27.6225 21.1994 27.3101L17.3425 23.5102L22.6953 22.7044Z" fill="#222222"/>
<path d="M27.5039 1.36719C27.5039 2.12235 26.8919 2.73438 26.1367 2.73438C25.3816 2.73438 24.7695 2.12235 24.7695 1.36719C24.7695 0.612031 25.3816 0 26.1367 0C26.8919 0 27.5039 0.612031 27.5039 1.36719Z" fill="#222222"/>
<path d="M19.6933 0.805813C8.19239 3.74153 0.160156 14.0921 0.160156 25.9765C0.160156 33.3577 3.26357 40.3128 8.7115 45.2384L0.474717 59.7547C0.209824 60.222 0.242935 60.8009 0.559098 61.2345C0.87526 61.6687 1.41573 61.8775 1.94177 61.7681L11.2958 59.8257L14.5835 69.09C14.7618 69.5941 15.2185 69.9472 15.7515 69.9947C16.2844 70.0422 16.7955 69.7736 17.0599 69.3084L26.1368 53.3508L35.2131 69.3084C35.4577 69.7383 35.9127 69.9995 36.4008 69.9995C36.4409 69.9995 36.4815 69.9979 36.5215 69.9947C37.0545 69.9472 37.5111 69.5936 37.69 69.09L40.9772 59.8257L50.3312 61.7681C50.8567 61.877 51.3977 61.6682 51.7139 61.2345C52.0306 60.8009 52.0632 60.222 51.7983 59.7547L43.5615 45.2384C49.0094 40.3128 52.1128 33.3577 52.1128 25.9765C52.1128 14.0921 44.0806 3.74153 32.5802 0.805813C31.848 0.618893 31.104 1.06056 30.9171 1.79222C30.7302 2.52388 31.1719 3.26836 31.9035 3.45528C42.1927 6.08178 49.379 15.3429 49.379 25.9765C49.379 38.9184 38.8682 49.2188 26.1368 49.2188C13.3963 49.2188 2.89454 38.9098 2.89454 25.9765C2.89454 15.3429 10.0803 6.08178 20.3695 3.45528C21.1011 3.26836 21.5428 2.52388 21.3564 1.79222C21.1695 1.06056 20.4255 0.618893 19.6933 0.805813ZM16.1611 65.3591L13.4742 57.7877C13.2457 57.1436 12.577 56.7671 11.9078 56.906L4.34397 58.4767L10.8627 46.988C14.6636 49.7512 19.1641 51.4346 23.844 51.8511L16.1611 65.3591ZM40.3651 56.906C39.6965 56.7671 39.0273 57.1436 38.7987 57.7877L36.1124 65.3591L28.4289 51.8511C33.1094 51.4346 37.6094 49.7512 41.4108 46.988L47.9295 58.4767L40.3651 56.906Z" fill="#222222"/>
</svg>
