<svg width="770" height="728" viewBox="0 0 770 728" fill="none" xmlns="http://www.w3.org/2000/svg">
<path opacity="0.1" fill-rule="evenodd" clip-rule="evenodd" d="M105.896 265.58C82.3612 283.289 59.3058 300.93 36.6819 319.183C10.5682 340.251 -27.6197 336.085 -48.6131 309.879C-69.6064 283.672 -65.4556 245.347 -39.3419 224.279C-4.6174 196.264 31.415 169.353 66.3768 143.242C75.3758 136.521 84.3039 129.853 93.1205 123.233C136.781 90.4496 178.484 58.2775 217.214 23.7282C231.399 11.0741 247.62 -1.18556 263.464 -11.3622L263.532 -11.4059C266.775 -13.4898 285.101 -25.2677 310.113 -19.3567C342.216 -11.7701 352.552 15.2433 354.997 24.8165C357.511 34.6597 356.884 42.6853 356.693 45.0063C356.413 48.4098 355.903 51.0954 355.604 52.536C354.651 57.1165 353.299 60.8254 353.044 61.5247C353.032 61.5575 353.023 61.5836 353.016 61.6029C352.148 64.0097 351.144 66.4073 350.49 67.9449C348.989 71.4797 346.902 76.1502 344.591 81.2383C339.89 91.5899 333.424 105.506 326.772 119.729C319.893 134.44 312.886 149.329 307.178 161.457C301.62 173.268 297.294 182.46 295.519 186.316C270.402 240.89 236.927 289.5 206.964 333.011C203.495 338.049 200.073 343.019 196.716 347.921C194.685 350.887 192.673 353.835 190.682 356.766C206.099 344.005 221.192 329.779 236.611 313.953C280.453 268.954 332.844 236.988 378.968 209.549C418.905 159.966 466.448 114.93 520.111 82.4793C526.379 78.6889 533.061 75.0539 539.897 72.1917C545.633 69.7898 556.642 65.6674 570.097 65.583C585.709 65.4851 612.827 71.7924 627.456 99.6464C638.534 120.739 634.303 140.558 632.867 146.529C629.342 161.184 621.584 173.383 617.424 179.503C615.366 182.529 613.133 185.573 610.777 188.558C613.804 187.826 618.112 187.035 623.166 186.872C627.401 186.736 660.44 185.999 678.236 218.247C693.227 245.414 681.728 270.114 680.412 272.94C680.379 273.011 680.353 273.068 680.333 273.111C677.422 279.503 674.057 283.893 672.938 285.334C671.392 287.324 670.022 288.834 669.218 289.694C666.614 292.479 664.111 294.619 663.433 295.199L663.371 295.252C659.947 298.183 654.647 302.243 650.502 305.397C645.989 308.83 641.394 312.284 637.163 315.465C636.52 315.948 635.885 316.425 635.26 316.895C625.265 327.671 615.517 341.938 602.54 360.931C599.339 365.617 595.941 370.59 592.294 375.87C575.946 399.539 561.133 424.789 546.828 451.44C573.132 434.702 598.383 418.513 623.977 400.488C639.053 389.871 655.754 379.861 670.08 371.276C672.712 369.698 675.263 368.169 677.709 366.693C687.792 357.761 698.187 348.893 708.939 340.064C714.215 335.732 726.442 327.525 734.106 322.956C736.199 321.708 739.528 319.774 743.168 318.038C744.712 317.301 748.484 315.539 753.326 314.099C755.612 313.42 760.575 312.06 767.002 311.634C771.503 311.335 788.303 310.499 805.244 321.992C827.901 337.363 833.044 361.481 831.836 377.284C830.877 389.834 826.266 398.783 824.755 401.628C821.192 408.333 817.065 413.039 815.882 414.388L815.845 414.431C812.544 418.195 808.84 421.665 806.072 424.183C787.83 440.773 767.943 453.991 750.237 464.944C692.835 516.96 646.262 572.276 598.093 639.954C578.618 667.317 540.728 673.654 513.463 654.11C505.36 648.302 499.108 640.861 494.833 632.554C470.786 650.538 448.524 669.224 428.434 689.571C428.337 689.717 428.234 689.874 428.125 690.04C426.489 692.539 424.551 695.645 422.331 699.204L421.997 699.74C420.232 702.572 417.687 706.654 415.664 709.606C415.073 710.468 414.026 711.973 412.729 713.643C412.089 714.466 410.966 715.877 409.488 717.508L409.47 717.528C408.516 718.58 404.99 722.473 399.614 726.318C397.092 728.122 390.848 732.361 381.756 735.098C372.452 737.898 352.81 741.059 332.713 728.772C313.313 716.911 307.13 698.888 305.211 690.747C303.21 682.255 303.521 675.334 303.726 672.388C304.164 666.121 305.497 661.322 305.875 659.963C306.452 657.89 307.031 656.209 307.393 655.201C314.981 634.049 326.459 612.661 336.382 595.106C335.571 595.735 334.758 596.362 333.943 596.988C315.658 611.036 292.786 626.204 271.935 640.032C260.643 647.521 249.943 654.617 240.885 660.929C211.245 681.585 188.806 700.28 174.186 720.13C174.146 720.185 174.091 720.261 174.021 720.358C172.944 721.839 168.415 728.072 162.757 733.171C162.725 733.2 162.683 733.237 162.633 733.283C161.36 734.445 154.364 740.824 143.569 744.965C137.821 747.17 123.233 751.8 105.245 746.676C83.7467 740.552 71.2127 724.734 65.681 711.29C61.061 700.062 60.9979 690.354 61.09 686.483C61.202 681.773 61.8367 678.033 62.2463 675.953C63.0666 671.789 64.151 668.565 64.6278 667.192C66.8627 660.758 71.1531 652.545 72.8626 649.272C73.013 648.985 73.1433 648.735 73.2506 648.528C74.1036 646.884 74.9354 645.289 75.7459 643.735C77.6284 640.126 79.396 636.738 81.047 633.457C82.4077 630.753 83.1002 629.258 83.367 628.692C96.0466 588.698 118.318 559.092 139.885 535.477C143.953 531.023 148.111 526.662 152.241 522.438C149.875 523.47 147.488 524.488 145.081 525.492C145.083 525.491 144.758 525.629 143.683 526.104C143.404 526.227 143.027 526.393 142.599 526.583C141.821 526.927 140.87 527.348 140.018 527.724C137.081 529.017 133.248 530.683 128.935 532.451C120.761 535.802 109.007 540.294 96.8937 543.298C90.8492 544.797 83.009 546.363 74.4462 546.798C66.8254 547.186 52.7173 547.051 37.796 540.204C19.6021 531.854 4.44225 515.255 -0.476929 492.57C-4.50684 473.986 -0.16671 457.904 3.15504 448.644C26.5837 383.333 63.0924 328.064 96.7131 278.96C99.8041 274.446 102.866 269.989 105.896 265.58ZM460.504 302.613C455.907 308.755 451.423 314.992 447.06 321.306C456.286 312.105 465.692 302.896 475.31 293.751C470.318 296.763 465.377 299.714 460.504 302.613ZM75.6237 649.039C75.6335 649.015 75.846 648.732 76.2319 648.262C75.8068 648.829 75.6138 649.064 75.6237 649.039ZM429.707 687.709C429.705 687.714 429.646 687.797 429.535 687.946C429.653 687.779 429.709 687.704 429.707 687.709ZM518.077 109.451C518.093 109.447 517.976 109.671 517.683 110.133C517.916 109.685 518.062 109.454 518.077 109.451ZM117.408 489.64C117.378 489.723 117.348 489.807 117.318 489.89L117.33 489.858C117.346 489.815 117.372 489.742 117.408 489.64Z" fill="#D05278"/>
</svg>
