<svg width="15" height="14" viewBox="0 0 15 14" fill="none" xmlns="http://www.w3.org/2000/svg">
<path fill-rule="evenodd" clip-rule="evenodd" d="M9.15167 0.322065C9.66482 0.109439 10.2148 0 10.7703 0C11.3258 0 11.8758 0.109439 12.3889 0.322065C12.9021 0.534691 13.3683 0.846337 13.761 1.2392C14.1538 1.63184 14.4653 2.098 14.6779 2.61107C14.8906 3.12422 15 3.67424 15 4.2297C15 4.78516 14.8906 5.33518 14.6779 5.84833C14.4653 6.36144 14.1537 6.82764 13.7609 7.2203C13.7609 7.22033 13.7608 7.22037 13.7608 7.2204L7.92029 13.0609C7.80878 13.1724 7.65753 13.2351 7.49982 13.2351C7.34212 13.2351 7.19087 13.1724 7.07936 13.0609L1.23875 7.2203C0.445591 6.42715 0 5.35139 0 4.2297C0 3.10801 0.445591 2.03226 1.23875 1.2391C2.0319 0.445944 3.10765 0.000353341 4.22935 0.000353341C5.35104 0.000353294 6.42679 0.445944 7.21995 1.2391L7.49982 1.51898L7.7796 1.2392C8.17228 0.846337 8.63851 0.534691 9.15167 0.322065ZM10.7703 1.18926C10.3711 1.18926 9.97574 1.26792 9.60691 1.42075C9.23808 1.57357 8.90297 1.79757 8.62074 2.07994L8.62064 2.08004L7.92029 2.78038C7.80878 2.8919 7.65753 2.95455 7.49982 2.95455C7.34212 2.95455 7.19087 2.8919 7.07936 2.78038L6.37901 2.08004C5.80888 1.50991 5.03563 1.18962 4.22935 1.18962C3.42307 1.18962 2.64981 1.50991 2.07968 2.08004C1.50956 2.65016 1.18926 3.42342 1.18926 4.2297C1.18926 5.03598 1.50956 5.80924 2.07968 6.37936L7.49982 11.7995L12.92 6.37936L12.9201 6.37927C13.2024 6.09703 13.4264 5.76192 13.5793 5.39309C13.7321 5.02426 13.8107 4.62894 13.8107 4.2297C13.8107 3.83046 13.7321 3.43514 13.5793 3.06631C13.4264 2.69748 13.2024 2.36237 12.9201 2.08014L12.9199 2.07994C12.6376 1.79757 12.3025 1.57357 11.9337 1.42075C11.5649 1.26792 11.1695 1.18926 10.7703 1.18926Z" fill="#222222"/>
</svg>
