<svg width="15" height="14" viewBox="0 0 15 14" fill="none" xmlns="http://www.w3.org/2000/svg">
<path d="M2.65403 12.8649C2.70794 13.0535 2.88038 13.1836 3.07658 13.1836H11.9242C12.1204 13.1836 12.2929 13.0535 12.3468 12.8649L14.0135 7.03125H0.987305L2.65403 12.8649ZM9.51322 10.9141L9.95267 8.27739C9.99258 8.03798 10.219 7.87614 10.4584 7.91616C10.6978 7.95606 10.8595 8.18247 10.8196 8.42189L10.3802 11.0586C10.3443 11.2736 10.1582 11.4259 9.94722 11.4259C9.92323 11.4259 9.89891 11.4239 9.87445 11.4198C9.63504 11.3799 9.47332 11.1535 9.51322 10.9141ZM7.06096 8.34961C7.06096 8.10691 7.25771 7.91016 7.50041 7.91016C7.7431 7.91016 7.93986 8.10691 7.93986 8.34961V10.9863C7.93986 11.229 7.7431 11.4258 7.50041 11.4258C7.25771 11.4258 7.06096 11.229 7.06096 10.9863V8.34961ZM4.57172 7.91616C4.81116 7.87629 5.03754 8.03798 5.07744 8.27739L5.51689 10.9141C5.5568 11.1535 5.39508 11.3799 5.15566 11.4198C5.13123 11.4239 5.10688 11.4259 5.08289 11.4259C4.87192 11.4259 4.68577 11.2736 4.64994 11.0586L4.21049 8.42189C4.17059 8.18247 4.3323 7.95603 4.57172 7.91616Z" fill="white"/>
<path d="M14.5605 4.39453H13.0139L9.63026 0.164936C9.47868 -0.0245265 9.20215 -0.0553177 9.0126 0.0963231C8.82308 0.247935 8.79234 0.524468 8.94398 0.713989L11.8884 4.39453H3.11159L6.05605 0.713989C6.20766 0.524468 6.17692 0.247905 5.98743 0.0963231C5.79788 -0.0553177 5.52135 -0.0245558 5.36977 0.164936L1.98606 4.39453H0.439453C0.196758 4.39453 0 4.59129 0 4.83398V5.71289C0 5.95559 0.196758 6.15234 0.439453 6.15234H14.5605C14.8032 6.15234 15 5.95559 15 5.71289V4.83398C15 4.59129 14.8032 4.39453 14.5605 4.39453Z" fill="white"/>
</svg>
