<svg width="510" height="310" viewBox="0 0 510 310" fill="none" xmlns="http://www.w3.org/2000/svg">
<path opacity="0.2" fill-rule="evenodd" clip-rule="evenodd" d="M84.4088 127.482C70.6144 137.831 57.1009 148.141 43.8404 158.808C28.5344 171.121 6.15133 168.686 -6.15351 153.371C-18.4584 138.055 -16.0254 115.658 -0.71939 103.345C19.6336 86.9723 40.7533 71.2453 61.2455 55.9856C66.5201 52.0578 71.7531 48.161 76.9207 44.2921C102.512 25.1329 126.955 6.33102 149.656 -13.8602C157.97 -21.2554 167.477 -28.4201 176.764 -34.3675L176.804 -34.3931C178.705 -35.6109 189.446 -42.4941 204.107 -39.0397C222.923 -34.6059 228.981 -18.8188 230.414 -13.2241C231.888 -7.47159 231.52 -2.7813 231.408 -1.4249C231.244 0.56417 230.946 2.13367 230.77 2.97556C230.212 5.65248 229.419 7.82003 229.27 8.22872C229.263 8.24787 229.257 8.26315 229.253 8.27444C228.744 9.681 228.156 11.0822 227.773 11.9808C226.893 14.0466 225.67 16.7761 224.315 19.7497C221.56 25.7993 217.77 33.9323 213.871 42.2445C209.839 50.8414 205.732 59.5431 202.386 66.6308C199.128 73.5332 196.593 78.905 195.553 81.1586C180.831 113.053 161.21 141.461 143.648 166.89C141.614 169.834 139.609 172.738 137.641 175.603C136.451 177.337 135.272 179.059 134.105 180.772C143.141 173.315 151.987 165.001 161.025 155.752C186.722 129.454 217.43 110.772 244.465 94.7364C267.873 65.7593 295.739 39.4395 327.192 20.4749C330.866 18.2597 334.783 16.1354 338.79 14.4627C342.152 13.059 348.604 10.6498 356.491 10.6005C365.642 10.5432 381.536 14.2293 390.111 30.5076C396.604 42.8346 394.124 54.4171 393.282 57.9067C391.216 66.4712 386.669 73.6006 384.23 77.177C383.025 78.9455 381.715 80.7247 380.334 82.4688C382.109 82.0414 384.634 81.579 387.596 81.4839C390.078 81.4042 409.444 80.9736 419.874 99.8198C428.661 115.696 421.921 130.131 421.15 131.783C421.131 131.825 421.115 131.858 421.103 131.883C419.397 135.618 417.425 138.184 416.769 139.026C415.863 140.189 415.06 141.072 414.589 141.574C413.062 143.202 411.595 144.453 411.198 144.791L411.161 144.823C409.155 146.536 406.048 148.908 403.618 150.751C400.974 152.758 398.28 154.776 395.8 156.635C395.423 156.918 395.051 157.197 394.685 157.471C388.826 163.769 383.113 172.107 375.507 183.206C373.63 185.945 371.639 188.851 369.501 191.937C359.919 205.769 351.237 220.526 342.852 236.101C358.27 226.319 373.07 216.858 388.072 206.324C396.908 200.119 406.697 194.269 415.094 189.252C416.636 188.33 418.132 187.437 419.566 186.574C425.475 181.354 431.568 176.171 437.87 171.011C440.962 168.48 448.13 163.684 452.621 161.013C453.848 160.284 455.799 159.154 457.933 158.139C458.838 157.708 461.049 156.678 463.887 155.837C465.227 155.44 468.136 154.645 471.902 154.396C474.541 154.222 484.388 153.733 494.318 160.45C507.597 169.433 510.612 183.528 509.904 192.763C509.342 200.098 506.639 205.328 505.753 206.99C503.665 210.909 501.246 213.659 500.553 214.447L500.531 214.473C498.596 216.673 496.425 218.7 494.803 220.172C484.111 229.867 472.454 237.592 462.076 243.993C428.431 274.392 401.134 306.72 372.9 346.272C361.485 362.263 339.277 365.967 323.296 354.545C318.547 351.15 314.882 346.802 312.376 341.947C298.281 352.457 285.233 363.378 273.458 375.269C273.401 375.354 273.341 375.446 273.277 375.543C272.318 377.003 271.182 378.819 269.881 380.899L269.685 381.212C268.65 382.867 267.159 385.252 265.973 386.977C265.627 387.481 265.013 388.361 264.253 389.337C263.878 389.818 263.219 390.642 262.353 391.596L262.342 391.607C261.784 392.222 259.716 394.497 256.566 396.744C255.088 397.799 251.428 400.276 246.098 401.875C240.645 403.512 229.132 405.359 217.353 398.179C205.982 391.247 202.358 380.714 201.233 375.956C200.06 370.993 200.243 366.949 200.363 365.227C200.62 361.564 201.401 358.759 201.623 357.965C201.96 356.754 202.3 355.771 202.512 355.182C206.96 342.821 213.687 330.321 219.504 320.062C219.028 320.429 218.552 320.796 218.074 321.162C207.356 329.372 193.951 338.236 181.729 346.317C175.111 350.694 168.839 354.841 163.53 358.53C146.157 370.601 133.005 381.527 124.436 393.128C124.412 393.16 124.38 393.205 124.339 393.261C123.708 394.127 121.053 397.77 117.737 400.749C117.718 400.766 117.694 400.788 117.664 400.815C116.918 401.494 112.817 405.222 106.49 407.642C103.121 408.931 94.5703 411.636 84.0273 408.642C71.4264 405.063 64.0799 395.819 60.8376 387.962C58.1297 381.4 58.0927 375.726 58.1467 373.464C58.2124 370.712 58.5844 368.526 58.8245 367.31C59.3053 364.876 59.9409 362.992 60.2203 362.19C61.5303 358.43 64.045 353.63 65.047 351.718C65.1351 351.549 65.2115 351.404 65.2744 351.283C65.7744 350.322 66.2619 349.39 66.737 348.482C67.8403 346.373 68.8764 344.392 69.8441 342.475C70.6416 340.895 71.0475 340.021 71.2039 339.69C78.6358 316.317 91.6899 299.015 104.331 285.214C106.715 282.611 109.153 280.062 111.573 277.594C110.186 278.197 108.787 278.792 107.376 279.378C107.378 279.378 107.187 279.458 106.557 279.736C106.393 279.808 106.173 279.905 105.921 280.016C105.465 280.217 104.908 280.463 104.409 280.683C102.687 281.438 100.441 282.412 97.9124 283.446C93.1215 285.403 86.232 288.029 79.1323 289.785C75.5895 290.66 70.9941 291.576 65.9752 291.83C61.5084 292.056 53.2392 291.978 44.4934 287.976C33.8294 283.097 24.9438 273.396 22.0605 260.138C19.6985 249.277 22.2423 239.879 24.1893 234.467C37.9215 196.298 59.3204 163.998 79.0265 135.301C80.8382 132.663 82.633 130.058 84.4088 127.482ZM292.255 149.125C289.561 152.714 286.933 156.359 284.375 160.049C289.783 154.672 295.296 149.29 300.933 143.946C298.007 145.706 295.111 147.43 292.255 149.125ZM66.6653 351.582C66.6711 351.567 66.7956 351.402 67.0218 351.127C66.7726 351.458 66.6596 351.596 66.6653 351.582ZM274.204 374.181C274.203 374.184 274.168 374.232 274.103 374.319C274.172 374.222 274.205 374.178 274.204 374.181ZM326.001 36.2373C326.01 36.2354 325.941 36.3664 325.77 36.6361C325.906 36.3743 325.992 36.2393 326.001 36.2373ZM91.1564 258.426C91.1389 258.475 91.1213 258.523 91.1038 258.572L91.1106 258.553C91.1198 258.528 91.1354 258.486 91.1564 258.426Z" fill="#D05278"/>
</svg>
